<?xml version="1.0" encoding="UTF-8"?>
<svg xmlns="http://www.w3.org/2000/svg" xmlns:xlink="http://www.w3.org/1999/xlink" width="19px" height="17px" viewBox="0 0 18 17" version="1.1">
<g id="surface1">
<path style="fill:none;stroke-width:3;stroke-linecap:butt;stroke-linejoin:miter;stroke:rgb(100%,100%,100%);stroke-opacity:1;stroke-miterlimit:4;" d="M 14.5 2.001379 C 12.051866 2.001379 8.263238 2.670496 5.594835 3.196232 C 4.600477 3.387408 3.769748 4.080423 3.442491 5.036305 C 2.775391 6.983915 2.001302 9.726103 2.001302 11.572151 C 2.001302 14.111213 2.882378 17.707721 3.60612 19.398438 C 3.820095 19.90625 4.27322 20.246783 4.814453 20.35432 C 6.148655 20.623162 8.527561 20.880055 10.3023 21.04136 C 11.070095 21.113051 11.78125 21.471507 12.322483 22.02114 C 13.109158 22.815717 14.072049 23.664062 14.5 23.664062 C 15.066406 23.664062 15.777561 22.947151 16.633464 22.045037 C 17.187283 21.465533 17.948785 21.154871 18.748047 21.101103 C 20.346571 20.987592 22.177951 20.694853 23.556207 20.431985 C 24.46875 20.264706 25.236545 19.649357 25.557509 18.777114 C 26.224609 16.972886 26.998698 14.188879 26.998698 11.572151 C 26.998698 8.997243 26.24349 6.446232 25.588976 4.803309 C 25.255425 3.972886 24.48763 3.405331 23.606554 3.232077 C 20.931858 2.706342 17.011068 2.001379 14.5 2.001379 Z M 14.5 2.001379 " transform="matrix(0.62069,0,0,0.653846,0,0)"/>
<path style="fill:none;stroke-width:3;stroke-linecap:round;stroke-linejoin:miter;stroke:rgb(100%,100%,100%);stroke-opacity:1;stroke-miterlimit:4;" d="M 7.835286 14.49954 C 9.94987 15.126838 15.236328 16.011029 19.496962 14.49954 " transform="matrix(0.62069,0,0,0.653846,0,0)"/>
<path style="fill:none;stroke-width:3;stroke-linecap:round;stroke-linejoin:miter;stroke:rgb(100%,100%,100%);stroke-opacity:1;stroke-miterlimit:4;" d="M 6.998264 8.668658 C 9.899523 9.295956 16.790799 10.174173 21.164714 8.668658 " transform="matrix(0.62069,0,0,0.653846,0,0)"/>
</g>
</svg>
