<svg viewBox="0 0 32 28" fill="none" xmlns="http://www.w3.org/2000/svg">
<path d="M8.61859 7.24584C7.73644 7.36014 6.44926 7.51316 5.44798 7.64363C4.62072 7.75142 3.89067 8.22767 3.54527 8.98706C2.83142 10.5565 2 13.1521 2 16.1414C2 19.1604 2.84804 21.9266 3.56653 23.617C3.90214 24.4066 4.63486 24.9261 5.48079 25.0692C6.49412 25.2407 7.77312 25.4448 8.61859 25.5848M8.61859 7.24584C8.25962 12.4682 7.75705 23.6461 8.61859 25.5848M8.61859 7.24584C9.59186 7.11972 9.45403 7.08648 10.6154 6.98127M8.61859 25.5848C11.3567 26.0381 13.9512 25.9992 16.6656 25.9992C19.1549 25.9992 20.9578 25.895 23.3814 25.5848M23.3814 7.24584C24.4656 7.3876 25.8171 7.53698 26.7982 7.66752C27.4786 7.75805 28.0934 8.11766 28.4137 8.72482C29.1363 10.095 30 12.6259 30 16.1414C30 19.5636 29.1816 22.1245 28.4715 23.6617C28.1173 24.4285 27.373 24.9158 26.542 25.0674C25.5671 25.2453 24.3379 25.4624 23.3814 25.5848M23.3814 7.24584C23.86 11.9516 24.5301 22.083 23.3814 25.5848M23.3814 7.24584C22.4062 7.11833 22.5466 7.07719 21.3846 6.98127M10.6154 6.98127C12.4433 6.81567 14.0738 6.69807 16 6.69807C17.5976 6.69807 19.9055 6.85917 21.3846 6.98127M10.6154 6.98127C10.8547 5.62775 12.2667 2 16 2C19.7333 2 21.265 5.65449 21.3846 6.98127"  stroke-width="3"/>
</svg>
