<?xml version="1.0" encoding="UTF-8"?>
<svg xmlns="http://www.w3.org/2000/svg" xmlns:xlink="http://www.w3.org/1999/xlink" width="20px" height="17px" viewBox="0 0 20 17" version="1.1">
<g id="surface1">
<path style="fill:none;stroke-width:3;stroke-linecap:butt;stroke-linejoin:miter;stroke:rgb(100%,100%,100%);stroke-opacity:1;stroke-miterlimit:4;" d="M 9.5625 7.686121 C 8.49375 7.817096 6.897656 7.996324 5.730469 8.141085 C 4.914844 8.244485 4.197656 8.699449 3.832031 9.430147 C 3.002344 11.119026 1.996875 13.993566 1.996875 17.32307 C 1.996875 20.673254 3.016406 23.740809 3.853125 25.553768 C 4.204687 26.325827 4.935937 26.822151 5.765625 26.960018 C 6.953906 27.153033 8.535937 27.387408 9.5625 27.552849 M 9.5625 7.686121 C 9.154687 13.338695 8.578125 25.450368 9.5625 27.552849 M 9.5625 7.686121 C 10.673437 7.548254 10.51875 7.513787 11.847656 7.396599 M 9.5625 27.552849 C 12.691406 28.042279 15.658594 28.000919 18.759375 28.000919 C 21.607031 28.000919 23.667187 27.883732 26.4375 27.552849 M 26.4375 7.686121 C 27.738281 7.844669 29.383594 8.017004 30.515625 8.161765 C 31.183594 8.251379 31.788281 8.589154 32.11875 9.168199 C 32.9625 10.622702 34.003125 13.407629 34.003125 17.32307 C 34.003125 21.13511 33.011719 23.961397 32.182031 25.608915 C 31.809375 26.346507 31.078125 26.808364 30.2625 26.953125 C 29.116406 27.153033 27.597656 27.408088 26.4375 27.552849 M 26.4375 7.686121 C 26.985937 12.780331 27.745312 23.754596 26.4375 27.552849 M 26.4375 7.686121 C 25.319531 7.548254 25.48125 7.5 24.152344 7.396599 M 11.847656 7.396599 C 13.935937 7.217371 15.799219 7.086397 18 7.086397 C 19.828125 7.086397 22.464844 7.265625 24.152344 7.396599 M 11.847656 7.396599 C 12.121875 5.928309 13.732031 1.999081 18 1.999081 C 22.267969 1.999081 24.01875 5.955882 24.152344 7.396599 " transform="matrix(0.555556,0,0,0.566667,0,0)"/>
</g>
</svg>
