<svg width="311" height="81" viewBox="0 0 311 81" fill="none" xmlns="http://www.w3.org/2000/svg">
<path d="M13.936 67.096C8.688 67.096 5.104 64.088 3.184 58.072C1.328 52.056 0.4 44.376 0.4 35.032C0.4 28.952 1.488 23.256 3.664 17.944C5.904 12.568 9.296 8.248 13.84 4.984C18.384 1.656 23.92 -0.00800133 30.448 -0.00800133C35.696 -0.00800133 40.464 1.112 44.752 3.352C49.04 5.528 52.432 8.664 54.928 12.76C57.488 16.856 58.768 21.592 58.768 26.968C58.768 33.176 57.52 38.392 55.024 42.616C52.528 46.84 49.296 49.976 45.328 52.024C41.36 54.072 37.168 55.096 32.752 55.096C29.168 55.096 25.872 54.488 22.864 53.272C23.248 55.32 23.44 56.888 23.44 57.976C23.44 64.056 20.272 67.096 13.936 67.096ZM31.408 40.216C33.712 40.216 35.696 39.384 37.36 37.72C39.088 35.992 39.952 34.008 39.952 31.768C39.952 29.464 39.088 27.48 37.36 25.816C35.696 24.088 33.712 23.224 31.408 23.224C29.168 23.224 27.184 24.088 25.456 25.816C23.728 27.48 22.864 29.464 22.864 31.768C22.864 34.008 23.728 35.992 25.456 37.72C27.184 39.384 29.168 40.216 31.408 40.216ZM78.9925 67C74.0005 67 69.9045 65.88 66.7045 63.64C63.5045 61.336 61.9045 58.04 61.9045 53.752C61.9045 50.04 63.5365 47.096 66.8005 44.92C70.0645 42.744 74.1285 41.656 78.9925 41.656C80.7845 41.656 82.4485 41.816 83.9845 42.136C85.5845 42.392 86.6725 42.712 87.2485 43.096C87.2485 41.496 86.5765 40.184 85.2325 39.16C83.8885 38.072 81.8405 37.528 79.0885 37.528C77.8725 37.528 76.8805 37.624 76.1125 37.816C75.3445 38.008 74.5125 38.296 73.6165 38.68C72.7205 39.064 71.8885 39.352 71.1205 39.544C70.4165 39.736 69.4565 39.832 68.2405 39.832C66.1925 39.832 64.5925 39.32 63.4405 38.296C62.2885 37.208 61.7125 35.576 61.7125 33.4C61.7125 30.904 62.6085 28.792 64.4005 27.064C66.2565 25.336 68.5605 24.056 71.3125 23.224C74.0645 22.328 76.8165 21.88 79.5685 21.88C85.0085 21.88 89.5525 22.904 93.2005 24.952C96.9125 26.936 99.6325 29.592 101.361 32.92C103.153 36.248 104.049 39.928 104.049 43.96C104.049 46.136 103.857 48.152 103.473 50.008C103.153 51.864 102.705 53.304 102.129 54.328C103.025 55.096 103.697 55.992 104.145 57.016C104.657 58.04 104.913 59.096 104.913 60.184C104.913 62.04 104.273 63.64 102.993 64.984C101.777 66.328 100.145 67 98.0965 67C96.5605 67 95.3125 66.776 94.3525 66.328C93.3925 65.88 92.3685 65.176 91.2805 64.216C89.6805 65.176 87.9205 65.88 86.0005 66.328C84.1445 66.776 81.8085 67 78.9925 67ZM80.9125 57.304C82.2565 57.304 83.3125 57.016 84.0805 56.44C84.9125 55.864 85.3285 55.16 85.3285 54.328C85.3285 53.496 84.9125 52.792 84.0805 52.216C83.3125 51.64 82.2565 51.352 80.9125 51.352C79.5685 51.352 78.4805 51.64 77.6485 52.216C76.8805 52.792 76.4965 53.496 76.4965 54.328C76.4965 55.16 76.8805 55.864 77.6485 56.44C78.4805 57.016 79.5685 57.304 80.9125 57.304ZM117.63 80.728C114.494 80.728 112.222 79.128 110.814 75.928C109.406 72.792 108.542 69.208 108.222 65.176C107.966 61.144 107.838 55.832 107.838 49.24C107.838 44.184 108.03 39.736 108.414 35.896C108.862 32.056 109.854 28.728 111.39 25.912C112.926 23.096 115.262 21.688 118.398 21.688C121.662 21.688 124.03 22.968 125.502 25.528C126.974 24.44 128.798 23.576 130.974 22.936C133.214 22.232 135.55 21.88 137.982 21.88C142.078 21.88 145.854 22.904 149.31 24.952C152.766 27 155.518 29.752 157.566 33.208C159.614 36.664 160.638 40.44 160.638 44.536C160.638 48.632 159.614 52.44 157.566 55.96C155.518 59.416 152.766 62.168 149.31 64.216C145.854 66.264 142.078 67.288 137.982 67.288C135.486 67.288 133.15 66.968 130.974 66.328C128.798 65.624 126.942 64.696 125.406 63.544C125.406 67.64 125.278 70.808 125.022 73.048C124.766 75.288 124.062 77.112 122.91 78.52C121.822 79.992 120.062 80.728 117.63 80.728ZM137.502 51.352C139.166 51.352 140.606 50.744 141.822 49.528C143.102 48.248 143.742 46.776 143.742 45.112C143.742 43.448 143.102 42.008 141.822 40.792C140.606 39.512 139.166 38.872 137.502 38.872C135.838 38.872 134.366 39.512 133.086 40.792C131.87 42.008 131.262 43.448 131.262 45.112C131.262 46.776 131.87 48.248 133.086 49.528C134.366 50.744 135.838 51.352 137.502 51.352ZM173.317 80.728C170.181 80.728 167.909 79.128 166.501 75.928C165.093 72.792 164.229 69.208 163.909 65.176C163.653 61.144 163.525 55.832 163.525 49.24C163.525 44.184 163.717 39.736 164.101 35.896C164.549 32.056 165.541 28.728 167.077 25.912C168.613 23.096 170.949 21.688 174.085 21.688C177.349 21.688 179.717 22.968 181.189 25.528C182.661 24.44 184.485 23.576 186.661 22.936C188.901 22.232 191.237 21.88 193.669 21.88C197.765 21.88 201.541 22.904 204.997 24.952C208.453 27 211.205 29.752 213.253 33.208C215.301 36.664 216.325 40.44 216.325 44.536C216.325 48.632 215.301 52.44 213.253 55.96C211.205 59.416 208.453 62.168 204.997 64.216C201.541 66.264 197.765 67.288 193.669 67.288C191.173 67.288 188.837 66.968 186.661 66.328C184.485 65.624 182.629 64.696 181.093 63.544C181.093 67.64 180.965 70.808 180.709 73.048C180.453 75.288 179.749 77.112 178.597 78.52C177.509 79.992 175.749 80.728 173.317 80.728ZM193.189 51.352C194.853 51.352 196.293 50.744 197.509 49.528C198.789 48.248 199.429 46.776 199.429 45.112C199.429 43.448 198.789 42.008 197.509 40.792C196.293 39.512 194.853 38.872 193.189 38.872C191.525 38.872 190.053 39.512 188.773 40.792C187.557 42.008 186.949 43.448 186.949 45.112C186.949 46.776 187.557 48.248 188.773 49.528C190.053 50.744 191.525 51.352 193.189 51.352ZM243.309 67C238.573 67 234.381 66.072 230.733 64.216C227.085 62.36 224.237 59.768 222.189 56.44C220.205 53.048 219.213 49.24 219.213 45.016C219.213 40.856 220.205 37.016 222.189 33.496C224.237 29.976 227.053 27.16 230.637 25.048C234.221 22.936 238.285 21.88 242.829 21.88C246.925 21.88 250.541 22.712 253.677 24.376C256.813 26.04 259.213 28.248 260.877 31C262.541 33.688 263.373 36.504 263.373 39.448C263.373 44.248 261.549 47.768 257.901 50.008C254.317 52.184 250.029 53.272 245.036 53.272C241.709 53.272 238.893 52.856 236.589 52.024C238.509 55.16 241.677 56.728 246.093 56.728C247.885 56.728 249.805 56.504 251.853 56.056C252.621 55.864 253.357 55.768 254.061 55.768C255.469 55.768 256.589 56.12 257.421 56.824C258.317 57.528 258.765 58.488 258.765 59.704C258.765 61.688 257.549 63.416 255.117 64.888C252.685 66.296 248.749 67 243.309 67ZM236.877 40.312C237.453 41.208 238.221 41.88 239.181 42.328C240.205 42.712 241.325 42.904 242.541 42.904C243.949 42.904 245.165 42.584 246.189 41.944C247.277 41.304 247.821 40.472 247.821 39.448C247.821 38.296 247.341 37.304 246.381 36.472C245.485 35.64 244.173 35.224 242.445 35.224C240.717 35.224 239.341 35.768 238.317 36.856C237.357 37.88 236.877 39.032 236.877 40.312ZM277.484 67C273.389 67 270.637 64.6 269.229 59.8C267.885 55 267.213 48.376 267.213 39.928C267.213 36.088 267.373 32.888 267.693 30.328C268.077 27.704 268.941 25.496 270.285 23.704C271.693 21.848 273.837 20.92 276.717 20.92C278.509 20.92 280.077 21.336 281.421 22.168C282.829 23 283.725 24.184 284.109 25.72C285.517 24.44 287.341 23.48 289.581 22.84C291.821 22.2 294.221 21.88 296.781 21.88C298.829 21.88 300.909 22.392 303.021 23.416C305.197 24.44 306.989 25.848 308.397 27.64C309.869 29.368 310.605 31.256 310.605 33.304C310.605 35.352 309.869 37.176 308.397 38.776C306.989 40.312 305.101 41.08 302.733 41.08C301.965 41.08 301.229 40.984 300.525 40.792C299.885 40.6 299.309 40.408 298.797 40.216C297.517 39.704 296.493 39.448 295.725 39.448C293.229 39.448 291.021 40.44 289.101 42.424C287.245 44.344 286.317 46.84 286.317 49.912C286.317 53.304 286.189 56.12 285.933 58.36C285.677 60.6 284.909 62.616 283.629 64.408C282.349 66.136 280.301 67 277.484 67Z" fill="white"/>
</svg>
